<svg width="300" height="300" viewBox="0 0 300 300" fill="none" xmlns="http://www.w3.org/2000/svg">
<path d="M268.233 272.177L261.184 280.04V300H248.276V232.258H261.184V263.291L267.226 255.009L283.43 232.258H299.176L276.747 262.221L300 300H284.712L268.233 272.177Z" fill="#FF5F57"/>
<path d="M221.508 285.856H202.672L198.965 300H186.206L206.766 232.258H217.758L237.93 300H225.172L221.508 285.856ZM205.646 274.736H218.663L212.24 249.798L205.646 274.736Z" fill="#FF5F57"/>
<path d="M170.537 270.316H139.007V289.438H175.862V300H124.138V232.258H175.704V242.912H139.007V259.987H170.537V270.316Z" fill="#FF5F57"/>
<path d="M85.9703 274.69H75.6642V300H62.0679V232.258H85.68C89.5831 232.258 93.1152 232.708 96.2764 233.607C99.4376 234.476 102.147 235.763 104.405 237.469C106.631 239.175 108.34 241.299 109.534 243.843C110.76 246.386 111.373 249.333 111.373 252.683C111.373 255.102 111.066 257.289 110.453 259.243C109.873 261.166 109.034 262.887 107.937 264.407C106.808 265.958 105.453 267.307 103.873 268.455C102.325 269.603 100.583 270.595 98.6473 271.433L113.792 299.395V300H99.2279L85.9703 274.69ZM75.6642 264.082H85.7284C87.8251 264.082 89.6637 263.802 91.2443 263.244C92.8571 262.655 94.1636 261.817 95.1635 260.732C96.0022 259.863 96.6312 258.824 97.0506 257.614C97.5022 256.405 97.728 255.056 97.728 253.567C97.728 251.768 97.4376 250.186 96.857 248.821C96.3086 247.425 95.47 246.278 94.341 245.378C93.341 244.572 92.1152 243.951 90.6637 243.517C89.2121 243.083 87.5509 242.866 85.68 242.866H75.6642V264.082Z" fill="#FF5F57"/>
<path d="M0 300V232.258H24.1116C28.0234 232.258 31.5735 232.63 34.7621 233.374C37.9836 234.119 40.7284 235.251 42.9965 236.771C45.2647 238.291 47.0069 240.214 48.2232 242.54C49.4723 244.866 50.0969 247.611 50.0969 250.775C50.064 252.822 49.6695 254.761 48.9135 256.591C48.1903 258.39 47.1055 259.972 45.6592 261.337C44.8702 262.081 43.9663 262.763 42.9472 263.384C41.9611 264.004 40.8599 264.531 39.6436 264.966V265.012C42.0104 265.632 43.8841 266.423 45.2647 267.385C46.6782 268.346 47.8616 269.463 48.8149 270.735C49.801 272.1 50.5242 273.588 50.9844 275.201C51.4775 276.783 51.724 278.427 51.724 280.133C51.724 283.39 51.1324 286.259 49.949 288.74C48.7656 291.222 47.0727 293.3 44.8702 294.975C42.6678 296.65 39.9888 297.906 36.833 298.743C33.6773 299.581 30.1272 300 26.1825 300H0ZM13.9048 270.13V289.438H26.2318C28.0398 289.438 29.6505 289.221 31.064 288.787C32.5104 288.353 33.7102 287.763 34.6635 287.019C35.7154 286.181 36.5043 285.173 37.0303 283.995C37.5891 282.816 37.8685 281.498 37.8685 280.04C37.8685 278.52 37.6548 277.155 37.2275 275.946C36.833 274.736 36.192 273.712 35.3045 272.875C34.417 272.007 33.2664 271.34 31.8529 270.874C30.4394 270.409 28.763 270.161 26.8235 270.13H13.9048ZM13.9048 260.685H24.2102C26.314 260.654 28.1713 260.422 29.782 259.987C31.3927 259.522 32.6912 258.84 33.6773 257.94C34.4991 257.227 35.1237 256.358 35.551 255.335C36.0112 254.311 36.2413 253.148 36.2413 251.845C36.2413 250.48 36.0441 249.286 35.6497 248.263C35.2881 247.239 34.7292 246.386 33.9732 245.704C32.987 244.742 31.6557 244.044 29.9792 243.61C28.3356 243.176 26.3962 242.943 24.1609 242.912H13.9048V260.685Z" fill="#FF5F57"/>
<path d="M232.605 38.0583H201.075V57.1804H237.93V67.7418H186.206V0H237.772V10.6544H201.075V27.7295H232.605V38.0583Z" fill="#66CCCC"/>
<path d="M144.095 39.9193L137.046 47.7822V67.7418H124.138V0H137.046V31.0328L143.088 22.7512L159.292 0H175.038L152.609 29.9627L175.862 67.7418H160.574L144.095 39.9193Z" fill="#66CCCC"/>
<path d="M97.3695 53.5979H78.5334L74.8265 67.7418H62.0679L82.6282 0H93.6195L113.792 67.7418H101.033L97.3695 53.5979ZM81.5075 42.4782H94.5247L88.1023 17.5403L81.5075 42.4782Z" fill="#66CCCC"/>
<path d="M18.1789 0L25.3672 25.4497L33.5451 0H51.7241V67.7418H38.2852V47.6891L38.9102 16.0049L28.9613 45.4094H21.721L12.8138 17.2611L13.4389 47.6891V67.7418H0V0H18.1789Z" fill="#66CCCC"/>
<path fill-rule="evenodd" clip-rule="evenodd" d="M0.000279475 155.388L13.8639 155.388C13.882 156.891 13.9783 158.321 14.1526 159.678C14.3148 161.223 14.5904 162.647 14.9796 163.949C15.4661 165.585 16.1148 167.04 16.9256 168.312C17.7364 169.615 18.6931 170.675 19.7958 171.493C20.6715 172.099 21.6607 172.568 22.7634 172.902C23.8337 173.235 25.0336 173.402 26.3634 173.402C27.6282 173.402 28.7796 173.25 29.8174 172.947C30.8228 172.644 31.7309 172.205 32.5417 171.629C33.6444 170.781 34.585 169.721 35.3633 168.448C36.1093 167.176 36.6931 165.691 37.1147 163.995C37.439 162.692 37.6823 161.268 37.8444 159.723C37.9606 158.339 38.0248 156.894 38.0369 155.388L51.8999 155.388C51.8656 158.07 51.6075 160.62 51.1255 163.041C50.5741 165.646 49.7795 168.054 48.7417 170.266C47.7363 172.356 46.5201 174.25 45.0931 175.946C43.6336 177.643 41.9633 179.097 40.0823 180.309C38.2336 181.49 36.1579 182.399 33.8552 183.035C31.5525 183.672 29.0553 183.99 26.3634 183.99C23.6391 183.99 21.0931 183.656 18.7256 182.99C16.3256 182.354 14.1688 181.43 12.2553 180.218C10.3418 179.067 8.67153 177.673 7.24451 176.037C5.78505 174.401 4.53641 172.599 3.49857 170.63C2.36344 168.388 1.50398 165.934 0.920201 163.268C0.346505 160.786 0.0398643 158.159 0.000279475 155.388Z" fill="#FF5F57"/>
<path fill-rule="evenodd" clip-rule="evenodd" d="M51.9035 144.851H38.0399C38.0218 143.348 37.9255 141.919 37.7512 140.562C37.5891 139.017 37.3134 137.593 36.9242 136.29C36.4377 134.654 35.7891 133.2 34.9782 131.928C34.1674 130.625 33.2107 129.565 32.108 128.747C31.2323 128.141 30.2431 127.671 29.1404 127.338C28.0702 127.005 26.8702 126.838 25.5404 126.838C24.2756 126.838 23.1242 126.989 22.0864 127.292C21.081 127.595 20.1729 128.035 19.3621 128.61C18.2594 129.459 17.3188 130.519 16.5405 131.791C15.7945 133.064 15.2107 134.548 14.7891 136.245C14.4648 137.547 14.2215 138.971 14.0594 140.516C13.9432 141.9 13.879 143.345 13.8669 144.851H0.00390625C0.038207 142.17 0.296352 139.619 0.77834 137.199C1.32969 134.594 2.12428 132.185 3.16212 129.974C4.16752 127.883 5.38373 125.99 6.81076 124.293C8.27021 122.597 9.94048 121.142 11.8216 119.931C13.6702 118.749 15.7459 117.84 18.0486 117.204C20.3513 116.568 22.8485 116.25 25.5404 116.25C28.2648 116.25 30.8107 116.583 33.1783 117.25C35.5782 117.886 37.735 118.81 39.6485 120.022C41.562 121.173 43.2323 122.566 44.6593 124.202C46.1188 125.838 47.3674 127.641 48.4052 129.61C49.5404 131.852 50.3998 134.306 50.9836 136.972C51.5573 139.454 51.8639 142.08 51.9035 144.851Z" fill="#66CCCC"/>
<path fill-rule="evenodd" clip-rule="evenodd" d="M62.25 144.75V116.25H85.8621C89.7652 116.25 93.2973 116.7 96.4585 117.599C99.6197 118.467 102.329 119.755 104.587 121.461C106.813 123.167 108.523 125.291 109.716 127.835C110.942 130.378 111.555 133.325 111.555 136.675C111.555 139.094 111.248 141.281 110.635 143.235C110.479 143.755 110.303 144.259 110.108 144.75H95.3216L95.3457 144.724C96.1843 143.855 96.8133 142.816 97.2327 141.606C97.6843 140.397 97.9101 139.047 97.9101 137.559C97.9101 135.76 97.6198 134.178 97.0391 132.813C96.4908 131.417 95.6521 130.27 94.5231 129.37C93.5231 128.564 92.2974 127.943 90.8458 127.509C89.3942 127.075 87.733 126.858 85.8621 126.858H75.8463V144.75H62.25Z" fill="#66CCCC"/>
<path fill-rule="evenodd" clip-rule="evenodd" d="M75.75 183.992V155.25H62.25V183.992H75.75ZM86.1524 158.682H86.0858L84.2665 155.25H98.6529L103.917 164.831L103.922 164.828L113.974 183.387V183.992H99.4849L99.3749 183.75L91.6809 169.236L86.1524 158.682Z" fill="#FF5F57"/>
</svg>
